<?xml version="1.0" encoding="utf-8"?>
<!-- Generator: Adobe Illustrator 24.3.0, SVG Export Plug-In . SVG Version: 6.00 Build 0)  -->
<svg version="1.1" id="Layer_15" xmlns="http://www.w3.org/2000/svg" xmlns:xlink="http://www.w3.org/1999/xlink" x="0px" y="0px"
	 viewBox="0 0 199.88 220.64" style="enable-background:new 0 0 199.88 220.64;" xml:space="preserve">
<path d="M199.86,102.54c-0.27-6.75-2.95-9.15-9.66-8.61c-19.08-39.7,19.13-76.14-64.76-83.1c1.82-14.56-9.36-11.49-7.55,1.63
	c-28.95-4.23-55.29,13.94-61,42.52C53.12,85.39,13.24,72.65,0,94.1c16.98,6.53,36.7,2.02,54.69,3.46
	c-27.32,2.03-17.67,34.12,3.7,34.37c0.16,1.26,0.41,2.49,0.73,3.7c11.87,9.83,14.94,27.24,27.84,36.32l-0.32-0.41
	c21.64,28.07,63.44,20.1,75.68-12.67c0.17-11.99,8.69-21.8,16.81-28.67C194.7,123.33,200.38,115.62,199.86,102.54z M135.49,15.4
	c35.7,1.64,49.91,25.55,45.7,59.34c-4.64-28.1-18.07-49-45.72-59.34H135.49z M174.29,73.59l-23.88,3.25
	c-2.8-19.49-0.48-39.91-16.12-55.63C157.37,27.84,172.78,48.08,174.29,73.59z M122.04,20.42c15.04,8.11,23.65,34.16,19.59,56.44
	H117.1C118.75,58.05,120.36,39.56,122.04,20.42z M117.47,21.22c-7.6,18.78-5.74,37.04-6,55.53H90.63
	C89.29,53.5,98.28,35.9,117.47,21.22z M103.2,15.71C86.56,21.19,73.37,30.92,64.63,46.4C71.08,28.37,83.63,17.63,103.2,15.71z
	 M4.95,92.3C26.12,80.73,49.37,71.87,73.63,76c-31.68-6.6,16.76-57.95,35.87-57.11c-35.42,25.96-16.28,59.6-34.02,57.37
	c29.64,5.5,60.93,6.26,90.54,2.5C149.57,87.58,30.36,98.21,4.95,92.3z M47.63,124.93c-14.31-10.79-2.34-35.28,9.9-14.37
	c-4.69,0.11-9.5-3.07-12.09,3.62l7.08-1c-2,7.3-1.82,14.53,3.11,3.1l5.42,9.82C55.54,130.73,51.14,128.12,47.63,124.93z
	 M74.82,95.66l-3.31,3.79c0.99-0.9,36.47,3.08,36.37-0.01l-11.67-4.69l74-11.14C175.69,282.02,16.53,132.84,74.82,95.66z
	 M177.04,125.4c0.13-6.48,0.56-9.3,7.2-11.44c-2.86-8.35,6.05-6.17,8.05-11.35l-12.94,4.77C202.07,76.67,202.75,128.9,177.04,125.4z
	"/>
<path d="M97.54,114.66c12.12,17.54-40.51,13.57-26.92-1.72c6-5.05,21.35-4,27,1.82l-8.7-2C87.89,123.51,97.99,125.78,97.54,114.66z
	 M79.06,111.37c-6.33,6.21-9.46,4.58-1.3,11.62C79.91,122.53,78.82,112.76,79.06,111.37z"/>
<path d="M151.08,109c32.61,6.06,9.45,18.36-9.92,15.48C129.02,117.6,142.56,109.58,151.08,109z M146.83,113.42
	c-0.79-3.71-7.32,4.23-8.5,4.38c1.8,1.84,3.59,3.69,6.42,6.6C145.68,119.38,146.26,116.4,146.83,113.42z M156.71,111.63
	c0.25,7.65-1.89,17.34,6.98,5.56C163.69,117.19,156.71,111.63,156.71,111.63z"/>
<path d="M107.69,126.39c-1.62,7.59-7.86,20.77,4.43,9.55c1.78,2.79,3.4,5.33,5.61,8.77l3.47-6c3.32,1.13,17.39,2.72,4.98,5.39
	c-9.15-0.55-4.66,9.43-13.83-2.03c-13.37,4.82-10.15-8.52-5.47-16.37L107.69,126.39z"/>
<path d="M130.02,98.6c10-5.88,31-4.42,37.11,2.36L130.02,98.6z"/>
<path d="M109.88,156.22c9.1,5.95,16.36,4.55,23.7-1.94C133.95,167.59,113.49,166.35,109.88,156.22z"/>
<path d="M106.88,125.7c2.09-8.36,5.51-16.73,0-25.07c9.42,2.08,4.83,18.81,0.84,25.76L106.88,125.7z"/>
</svg>
