<svg id="Layer_24" data-name="Layer 24" xmlns="http://www.w3.org/2000/svg" viewBox="0 0 229.98 199.83"><path d="M157.38,221.39c-13.95-1.66-28.61-1.4-41.86-5.6-11.26-3.57-17.56-3.3-25.12,6.54-8.73,11.36-22.39,13-32.8,6.91C47,223,42.6,210.33,46.42,196.58A55.84,55.84,0,0,1,48.87,190c2.84-6.7,2.25-12.83-3-18.17-16-16.44-13.76-26.55,2.9-41,.88-.77,1.64-1.71,2.58-2.39,11.24-8.14,16.78-19.11,17-33,.18-11.18,5.75-19.67,14.66-25.91,23-16.13,47.58-22.5,74.86-11.35,2.21.9,5.41.49,7.79-.33,18.19-6.3,36.58-10.22,55.78-5.19,24.1,6.32,37.41,25.94,34.51,50.62-.52,4.43-1,8.85-1.65,13.26-1.16,8.45.23,16.44,5,23.54,7.76,11.64,7.17,23.29.82,35.18-1.33,2.47-2.56,5-3.85,7.49-3.36,6.52-3,12.85-.06,19.57,2.44,5.5,4.93,11.37,5.46,17.25,1.57,17.59-16.63,32.4-36.11,30.07a21.55,21.55,0,0,1-4.85-.78c-12.17-4.42-23.88-3.41-36.28.38-14.37,4.39-29.23-7-28.66-20.53C155.89,225.73,157.05,222.82,157.38,221.39ZM78.26,148.06c-3.8,26.53,3.86,44.83,23.34,55.88,18,10.24,37.47,13.42,57.67,8.59,19-4.55,34.17-13.47,34.92-36.14,0-.95,3.08-2.55,4.7-2.53,4.16,0,8.34,1.48,12.44,1.22,7.18-.47,12.33-4.56,14.53-11.43,2-6.27.73-12.16-4.41-16.64-5.34-4.67-11.12-4.95-17.62-2a13,13,0,0,1-8.57.17c-9.84-3.15-15.24-13.81-13.14-25,4.34-23,4.31-23-18.91-23.47-6.88-.13-13.65-1.66-17.06-7.88-3.18-5.8-7-6.52-12.44-4.82-2.22.69-4.58.94-6.83,1.58C101,93,78.87,120.41,79.37,145L90.8,133.14c4.83,4.4,6,4.31,9.31-1.09,1.52,1.72,3.73,5.61,4.92,5.32,5.26-1.28,6.18,2.54,7.34,5.51,1.59,4,4.06,8.85,3.09,12.53-1.46,5.58-7.19,7.6-13,7.51C92,162.76,84.31,157.69,78.26,148.06Zm28,10.42c8.2-3.27,9.21-7.07,3.2-12.25ZM89,140.12c-2.87,4-5.19,6.37-6.12,9.16-.32,1,2.85,3.08,4.85,5.1C88.21,149.48,88.52,145.9,89,140.12Z" transform="translate(-35.02 -50.32)"/><path d="M148.2,142.1c6.48,1.84,8.37.65,9.59-6,2.24,1.23,5,4,7.08,3.55s3.67-4.06,5-5.66c1.2,2.3,2,5.82,4.25,7.78,5,4.46,4.51-4.55,9.62-3.68-4.34,4.93-1.79,9.57-.57,14.71,1.41,5.89-6.63,14.42-13.79,14.19A60.84,60.84,0,0,1,148,162.36c-7.29-3.08-7.36-6.49-2.95-13.28C146.26,147.18,147,144.91,148.2,142.1Zm5.45,5.5-8.75,8.48,5.62,4.34c1.21-4.83,2.24-8.9,3.25-13Zm18.79,16.5c2.57-4.72,6.63-8.83,6.11-12.23-.48-3.18-5.84-5.61-8.91-8.25C170.59,150.54,171.35,156.15,172.44,164.1Z" transform="translate(-35.02 -50.32)"/><path d="M126.06,182.41c10.71,6,16.06,5.14,20.22-2.59a14.75,14.75,0,0,0,1.35-3.18,39,39,0,0,0,.71-4.19c2.51.85,5.06,1.61,7.47,2.69.31.13.25,2.33-.32,3-2.17,2.4-4.78,4.39-6.93,6.79C141.2,193.14,130.87,192.54,126.06,182.41Z" transform="translate(-35.02 -50.32)"/><path d="M125.67,136.51c4.63,8.17,3.86,17.68-2.33,24.06-3.63,3.73-5,6.49-.48,10.26.75.63.67,2.27,1,3.45-1.24-.19-2.7,0-3.69-.62-6.11-3.71-7-8.79-1.86-13.62C125.21,153.48,127.4,145.72,125.67,136.51Z" transform="translate(-35.02 -50.32)"/><path d="M150.86,127.79c8.06-4.18,16.7-4,25.28.5,1,.52,1.48,2,2.2,3.05-1.16.31-2.39,1-3.46.84C166.81,130.81,158.78,129.26,150.86,127.79Z" transform="translate(-35.02 -50.32)"/><path d="M91.11,125a26.72,26.72,0,0,1,23.83,5.49c.91.73,1.14,2.32,1.68,3.51-1.26.09-2.7.63-3.76.2C105.65,131.26,98.52,128.14,91.11,125Z" transform="translate(-35.02 -50.32)"/></svg>