<svg id="Layer_29" data-name="Layer 29" xmlns="http://www.w3.org/2000/svg" viewBox="0 0 217.4 227.49"><path d="M259.62,122.38c-4.62-79.12-68-96-136.46-87.33-24.06.22-39.32,18.82-58.64,29.82C57.47,70.26,54,80.4,48.9,87.68c-2.94,4.91-5.68,9.7-.68,15.23-.55,29.3-2.8,62.13,12.7,88.8,17.13,38.83,18.27,60.13,66.71,68.78,23.11-3.26,49.3-3.34,66.35-22.17,7.78-10.49,13.54-23.59,26.05-30,12.66-5.66,19.6-10.52,26.69-22,6.39-1.12,6.64-6.26,7.79-10.84C257.28,157.86,268.21,139.9,259.62,122.38ZM110.6,42c54.48-13.21,138-4,141,67C229.1,53.47,132.33,33.09,82,59.25,89.18,49.6,99.65,45.26,110.6,42ZM232.86,182.57c-5.33,8.68-17.8,3.19-18.9,15.06-19.2,74.89-132.61,78.93-142.43,5.4-2-22.11-4.71-48.05,0-69.54,2-2.62,9.14-.77,13.63-2.13,8.11-2.44,15.95-5.8,24.42-9-8,19.45,50.76,8,58.81-.51,7.22,20.77,36.31,27.65,38.07,47.69,0,3-.64,8.46,1.74,10.37,10.87-.67,8.17-17.11,10.24-24.85C234.56,130.75,245.75,169.32,232.86,182.57ZM257.91,143a155,155,0,0,1-9.79,33.74c-10.06-32-16.48-63.83-48.27-81.56-37.23-27-117.18-31.56-149.15,4.62-.37-2.41-1.19-4.09-.67-4.88,9-17.21,13-26.07,31.78-35.34,6.85,4.05,12.18-.61,18.59-2.71,19-6.72,38.71-5.31,58.36-3,30.91,7.88,70.3,17.32,84.7,49C251.66,114.74,260.17,127.6,257.91,143Z" transform="translate(-45.45 -33)"/><path d="M160.33,199.89c-10.91-.49-22.64-1.31-23-14.88.39-9.62-15.22-9.64-14.9,0-1.2,10.23-4.83,13.66-15.08,14.28-16.53.81-37.66,1.49-34.67-22.78-.59-18.66,21.45-14.79,34.4-15.29,5.57.15,10.78,1,14.5,6.54,2.71,4,13.39,4.67,15.9.88,5.32-8,13.26-7.47,20.85-7.77,11.39.67,29.86-2.13,30.39,13.93C192.58,195.19,177.63,199.87,160.33,199.89Z" transform="translate(-45.45 -33)"/><path d="M121.54,220.5l24.37-3.71C139.5,223.88,133.23,225,121.54,220.5Z" transform="translate(-45.45 -33)"/><path d="M220.26,99.19c.56-4,1.12-8,1.87-13.32C225.79,93.18,225.79,93.18,220.26,99.19Z" transform="translate(-45.45 -33)"/><path d="M244.68,143.52q1.68-7.31,3.37-14.62c3.67,5.88,2.22,10.74-1.1,15.25Z" transform="translate(-45.45 -33)"/><path d="M239,126.78c.67-4,1.34-7.9,2.22-13.06C244.47,120.46,244.47,120.46,239,126.78Z" transform="translate(-45.45 -33)"/><path d="M70.6,80.16c-2.24-6,.16-9.44,3.58-12.25l2.56,1.46Q73.66,74.77,70.6,80.16Z" transform="translate(-45.45 -33)"/><path d="M206,90.05l2.43-10.32,3.11.65-2.25,10.14Z" transform="translate(-45.45 -33)"/><path d="M130.19,67.47q2.22-5.32,4.43-10.65l3,1.28q-2.37,5.25-4.73,10.52Z" transform="translate(-45.45 -33)"/><path d="M179.2,76.78c.42-3.08.85-6.16,1.42-10.31C183.21,71.53,183.21,71.53,179.2,76.78Z" transform="translate(-45.45 -33)"/><path d="M194.13,83.39c.66-3.26,1.33-6.51,2-9.77l2.51.32c-.34,3.32-.67,6.63-1,10Z" transform="translate(-45.45 -33)"/><path d="M233,112.62c.31-3.62.61-7.24.92-10.85l2.1.08v10.62Z" transform="translate(-45.45 -33)"/><path d="M118,59.89l-3,9.58C113.11,64.05,113.11,64.05,118,59.89Z" transform="translate(-45.45 -33)"/><path d="M97,69.74C96.15,66.48,96.2,64,100,62c1.08,2.92,0,5.38-1.37,8Z" transform="translate(-45.45 -33)"/><path d="M164.33,70.18c.78-2.73,1.55-5.46,2.33-8.19l2.69.77c-.78,2.72-1.57,5.45-2.35,8.18Z" transform="translate(-45.45 -33)"/><path d="M151.71,59.58c-.28,2.44-.55,4.88-.83,7.33l-2.43-.21c.22-2.44.43-4.89.65-7.33Z" transform="translate(-45.45 -33)"/><path d="M87.18,67.61,83,73.09,81.32,72l3.53-6.19Z" transform="translate(-45.45 -33)"/></svg>