<svg id="Layer_28" data-name="Layer 28" xmlns="http://www.w3.org/2000/svg" viewBox="0 0 227.09 224.13"><defs><style>.cls-1{stroke:#000;stroke-miterlimit:10;stroke-width:3px;}</style></defs><path d="M264.38,123.23c-8.74-9.6-13.67-22.64-22.71-30.28-3.67-3.67-7.4-7.65-7.57-14.36C232,50.8,201.37,46,180.13,57.13,183.75,25,139,37.21,128.16,55c-10.28-3.2-24.21-9.08-36-6.7C80.53,50.05,77.26,63.54,80.75,74.4c-7,2.38-7,13.28-16.51,13.06-11.57,1.29-10.5,20.14-18.93,26-8.1,5.46-10,29,3.68,21.77,22.32-5.15,12.5-11.59,26.23-9.87-1.33,12.58-19.34,41.32,3.3,40.43,4.2-.11,6.81.94,7.35,6,1.56,14.71,3.94,29.35,5.42,44.07,3.78,64.16,103.83,56.49,118.17,1.73,2.65-6.61,8.93-5,11.75-8.92,6.73-11.68,10.52-42.82-11.5-36.77-6.62,1.49-8.19-5.12-13.79-5.51,10.15-17.17-2.59-29.9-6.51-46.51,13.48,9.39,17.28,24.1,28.2,35.82,4.37,3.45,13.06,10.4,16.06,1.57,1.74-3.4,5.44-6.58,3.38-10.57-1.77-16.26-17-24-15.19-32.4a91.43,91.43,0,0,1,19.45,19.11c0-.38,0-.76-.07-1.13,4.83,2.46,8.64,4.6,12.6,6.38C261.55,142,269.65,130,264.38,123.23ZM81.45,118c-1.11,1.4-1.33,5.45-3.21,5.13q1.5-5.1,3-10.2l2.13.72C82.72,115.07,82.1,116.52,81.45,118Zm80.37,32.27c1.46-6.58,3.71-13,6.13-21.15l9.29,29.5C171.38,157.72,159.45,159.39,161.82,150.24Zm-25-21.4c1.09,7.31,2.18,14.62,3.34,22.37C124.8,156.17,130,135.65,136.86,128.84Zm-30.2-2.92c-1.14,8-1,13.45-3,19.63,1.83,8.65-3.64,10.07-11,10.56C94.76,144.65,99.54,133.9,106.66,125.92Zm96.61,49.85c8.14,1.08,18.86-5,19.2,8.23.61,10.75-.49,28.87-16.45,22.35-1.61,60.78-102.81,71.42-110.77,12.83.8-9.56-13-58.71-2.49-58.5,4.48-.24,9.44-7,13.72,1.07,2.4,4.52,12.71,3.88,16.08-1.14,2.27-3.38,4.2-6,8.56-5.58,10.62-1.07,15.88,13.34,27.7,8.17C173.87,158.92,191,166.45,203.27,175.77Z" transform="translate(-38.97 -37.17)"/><path d="M149.71,222c-8.59.58-17.18,1.25-25.79,1.65-11.48.26-1.17-12,4.44-12,7.83.78,18.66-1.53,24.73,4.22,2.88,4,1.76,6.58-3,7.84Z" transform="translate(-38.97 -37.17)"/><path d="M155,177.89l-7,3.89c4.62-10,14.66-11,28-3.45C165.6,184.55,162,192.83,155,177.89Z" transform="translate(-38.97 -37.17)"/><path d="M119.22,180.74c-18,15.27-14.56-5.3-21.59,1.57C92.8,171.43,114.52,171.83,119.22,180.74Z" transform="translate(-38.97 -37.17)"/><path d="M127.42,228h17.83C141.29,233.38,135,233.56,127.42,228Z" transform="translate(-38.97 -37.17)"/><path class="cls-1" d="M217,173c5.33-5.67,2.17-9.83,7.5-15.5" transform="translate(-38.97 -37.17)"/></svg>