<svg id="Layer_20" data-name="Layer 20" xmlns="http://www.w3.org/2000/svg" viewBox="0 0 218.88 225.1"><defs><style>.cls-1{fill:#fff;}</style></defs><path class="cls-1" d="M246.46,115.9c-3.26-5.41-6.85-10.62-10.39-16.08,57.65-9.78-47.08-72.68-76.86-59-54.64,10-119.67,34-124.09,98.16l17.53-6.62c-12.58,28.43-10.48,97.77,31.77,95.5,1.49,6.4,3.5,12.72,4.46,18.1,32,23.47,85.11,24.44,117.3.45,7-11.69,9.68-25,12.48-37.88C248.31,184.73,264.44,145.73,246.46,115.9ZM96.22,131.58c.22-4.17,6.41-2.51,6.12,1C107.61,136.89,95.7,135.9,96.22,131.58Zm22,26.41c-4,4.52-25.29-.82-18-8.08C105.08,147.8,118.52,152.13,118.17,158Zm80.15-8.9c-3.19,3-26.45,8-23.62.59C179.16,146.56,208,136.49,198.32,149.09Z" transform="translate(-35.12 -38.86)"/><path d="M184.94,259.42c22.7-8.44,30.63-28.47,33.72-50.92,37.25-29.29,47-75.45,17.41-108.68,57.65-9.78-47.08-72.68-76.86-59-54.64,10-119.67,34-124.09,98.16l17.53-6.62c-12.58,28.43-10.48,97.77,31.77,95.5,1.49,6.4,3.5,12.72,4.46,18.1C115.07,267.32,153,264.75,184.94,259.42Zm-73.2-3.49c-39.87-11.63-11.82-74-46.55-91.72C97.59,147.4,50.5,124.45,120.54,94c29.72,38,57.23,12.2,92.81,26.31,3.05,33.48-2.65,69.29-4.45,103.24C200.9,264.93,143.44,261.57,111.74,255.93Z" transform="translate(-35.12 -38.86)"/><path class="cls-1" d="M213.35,120.32C177.84,106.24,150.16,132,120.54,94c-70.25,30.68-22.81,53.26-55.35,70.21,34.72,17.72,6.68,80.09,46.55,91.72,31.68,5.67,89.18,9,97.16-32.38C210.7,189.61,216.4,153.79,213.35,120.32Zm-12.32,2c.32,1.21.65,2.43,1,3.64l-33.58,10.59-1.17-5.25Zm-104,7.41c2-1.76,5.43.42,5.28,2.92C108.16,138,92,134.71,97.06,129.69Zm-5.83,22.54c7.94-9.65,23-6.6,34.53,7.9C111.51,164.2,100.92,160.48,91.23,152.23Zm27.47-13.56c-4.07-2.93-8.65-3.64-13.55-4C128.68,134,142,156.6,145,177.16c1.78,8.66,4.93,17.05,8.05,27.52-2.33,2.19-6.47,2.93-8.95-4.23C141.79,176.83,137.83,154.73,118.7,138.67Zm25,91.26c-.14-7,9-4,13.89-5.51l.51,4.44ZM165,154.25c10-11.94,23.21-15.8,43.33-12C195.67,155.64,181.35,159.32,165,154.25Z" transform="translate(-35.12 -38.86)"/><path d="M165,154.25c16.38,5.07,30.7,1.39,43.33-12C188.18,138.45,175,142.31,165,154.25Zm33.35-5.16c-3.19,3-26.45,8-23.62.59C179.16,146.56,208,136.49,198.32,149.09Z" transform="translate(-35.12 -38.86)"/><path d="M119.44,137.84c16.92,7.65,22.16,22.72,25.57,39.32,1.78,8.66,4.93,17.05,8.05,27.52-2.33,2.19-6.47,2.93-8.95-4.23-2.32-23.62-6.28-45.72-25.41-61.78Z" transform="translate(-35.12 -38.86)"/><path d="M91.23,152.23c9.69,8.25,20.28,12,34.53,7.9C114.25,145.63,99.17,142.58,91.23,152.23ZM118.17,158c-5.42,4.24-14.4.18-19.5-3.32-1.42-2.45,2.3-4.09,1.25-6.91.31.72.57,1.3.8,1.84C106.12,148.5,118.12,151.85,118.17,158Z" transform="translate(-35.12 -38.86)"/><path d="M167.26,131.26l33.77-9c.32,1.21.65,2.43,1,3.64l-33.58,10.59Z" transform="translate(-35.12 -38.86)"/><path d="M144.51,225.89l13.05-1.47.51,4.44-14.4,1.07Z" transform="translate(-35.12 -38.86)"/><path d="M113.8,135l-8.64-.26C107.86,134.54,111.71,136.55,113.8,135Z" transform="translate(-35.12 -38.86)"/><path d="M118.7,138.67l-5.48-3,.58-.7,5.63,2.88Z" transform="translate(-35.12 -38.86)"/><path d="M111.93,156.67c3.21,0,3.22-5,0-5s-3.23,5,0,5Z" transform="translate(-35.12 -38.86)"/><path d="M181.7,150.58c3.22,0,3.23-5,0-5s-3.22,5,0,5Z" transform="translate(-35.12 -38.86)"/></svg>