<svg id="Layer_25" data-name="Layer 25" xmlns="http://www.w3.org/2000/svg" viewBox="0 0 206.25 211.25"><path d="M239.61,107.59c-1.69,10-3.16,20-5.18,30-.78,3.86-.28,5.9,3.39,8.05,12.46,7.3,17.85,20.57,13.91,32.72-4.15,12.77-15.09,19.9-30.14,18.56-5.06-.45-7.07,1.34-9.46,5.22C206.67,211,201.3,220,194.61,227.94c-19.63,23.18-45,30.58-74,23.11-34.55-8.89-60.11-28.73-71.06-64-5.34-17.19-2.45-34.67,4.12-50.59,8.18-19.82,18.56-38.8,29-57.6,3.25-5.88,9-11,14.74-14.76,28.12-18.34,58.86-26.06,92.11-18.89C220.87,52,238.72,75.29,239.61,107.59ZM137.34,188.85c9.08-1.32,18.58-1.36,27.16-4.2,32.46-10.75,59.25-27.81,65.57-65.11,5.76-34-11.85-61-45.73-66.73-28.87-4.88-56.31,2-81.7,16.45a37.07,37.07,0,0,0-9.87,8.53c-18.72,22.52-29.44,48.76-35,77.25-.39,2,.82,5.5,2.44,6.57C83.57,177.05,107.9,189.83,137.34,188.85Zm83.38-.22c10.53,2,20.29-3.3,23.41-13.19,2.61-8.32-2.35-18.8-10.8-23-2.51-1.24-4.22-2-5,1.92C226,165.82,223.27,177.22,220.72,188.63ZM125.6,218.4a19.94,19.94,0,0,0,15.84-9.9c.68-1.1.09-3,.09-4.5-1.34.41-3.08.42-4,1.29-12.41,12.14-25.76,9.81-33.62-5.86-.71-1.42-2.38-2.36-3.6-3.52-.41,1.87-1.57,4-1.11,5.59C101.92,210.93,113.37,218.6,125.6,218.4Z" transform="translate(-46.75 -42.6)"/><path d="M166.48,171.5c-6.3-2.16-11.85-3.29-16.58-5.88-6.16-3.39-7.5-10.94-4-17,9.41-16.2,35.15-19.25,48.18-5.7,6,6.24,5,15.83-3.46,20.25C183.08,167.15,174.41,168.88,166.48,171.5Zm13.11-30.78c5.31,6.77,5.19,13.83,2.34,21.84,4.3-3.24,9.81-7,10-11C192.29,145,185.5,142.67,179.59,140.72Zm-22.63,4c-6.48,3.45-9.6,8.34-7,13.6,1.87,3.73,7,5.83,10.68,8.66l1.86-1.94C156.16,159.87,153.85,153.52,157,144.72Z" transform="translate(-46.75 -42.6)"/><path d="M98.92,165.83c-8.46-3.19-16.59-5.44-23.89-9.26-6.55-3.43-7.51-9.21-4.35-15.5,4.15-8.25,16.74-13.08,28.63-11,13.29,2.36,20.35,8.27,21.24,19,.25,3-1.35,7.63-3.63,9C111.6,161.43,105.36,163.21,98.92,165.83Zm10.49-7.73c2.57-2.66,8.89-7.59,8.24-8.8-2.73-5.1-7.53-9.08-11.41-13.29C107.34,143.65,108.31,150.45,109.41,158.1ZM78.1,154.59,87,134.75c-4.62.71-10.22,3.68-11.94,10.32C74.32,147.84,77,151.48,78.1,154.59Z" transform="translate(-46.75 -42.6)"/><path d="M178.36,110.72c3.63,0,7.78-1.1,10.74.31,3.16,1.5,6.79,5.1,7.32,8.28a7.3,7.3,0,0,1-7.93,8.4,106.93,106.93,0,0,1-22.64-4.19c-2.28-.68-5.09-5.14-4.76-7.46.3-2.08,4.37-4.35,7.17-5.14C171.4,110,175,110.72,178.36,110.72Z" transform="translate(-46.75 -42.6)"/><path d="M102.24,123.37c-4.52-.72-9.18-1-13.49-2.37-2-.66-4.68-3.38-4.75-5.26s2.57-4.85,4.5-5.31A96,96,0,0,1,106.38,108c5-.21,9.45,1.91,9.28,7.79s-4.52,7.38-9.71,7.15c-1.21-.06-2.42,0-3.63,0Z" transform="translate(-46.75 -42.6)"/><path d="M134.47,149.7c-2.78,4.89-6.21,10.53-9.26,16.37-2.35,4.48-4.22,9.21-6.32,13.83-.63,1.39-1.3,2.75-2,4.13-1.61-.8-4-1.17-4.71-2.46-2.89-5.14-2-10.11,1.58-14.8,5.14-6.84,10.06-13.86,15.2-20.7.72-.95,2.19-1.34,3.31-2C132.79,145.35,133.28,146.62,134.47,149.7Z" transform="translate(-46.75 -42.6)"/></svg>