<svg id="Layer_27" data-name="Layer 27" xmlns="http://www.w3.org/2000/svg" viewBox="0 0 203.88 208.98"><path d="M96.69,224.34c13,4.93,21.5,19.29,35.52,23.11,33.21,10.1,85.78,8.88,91.44-34.75-2.63-28.66,19.94-37.11,5.43-58.59-2.63-3.72-3.29-7.35.52-10.16,12.63-16,11.3-39.4,18-58.36.51-5.76,6.26-15.24-2-17.56Q225.17,61.93,205,55.11c-33.79-9.37-83.88-22.28-112.12,4.78-22,6-40.28,14.92-44.26,39.71C38.49,128.16,60.47,225.61,96.69,224.34Zm130-64.22c4.39,5.35,6,17.62-.92,18.68Q226.25,169.46,226.7,160.12Zm-4.65,9c-.34,15.48-.34,15.48-16.1,15-13.93-.42-20.64-11.12-14.53-24,3.22-5.41,11-5.94,16.83-5.46C222.36,154.66,222.36,154.67,222.05,169.09ZM102.54,146c1.58-11.06,19.11-.11,26.52-23.34,11.09-33.61,45.34-.66,68.82-1.32L191,110.7c10.76-3.48,18.2,2.43,25.16,9.16,9.89,4.58,8.29,12.5,6.56,21.51-9.31-1.34-25.93-3.94-29.87,6.58,9.31,3.9,19.73-2.37,28.94,1-.09.82-.19,1.63-.28,2.45-7.18,0-14.37,0-21.55,0-10.77-1.31-18.38,19.21-28.23,6.38-3.34-4.61-7.43-6.31-12.67-6.33-46.28-3.47-19.62,13.79-58.31,7.7C101.41,154.29,102.05,150.18,102.54,146Zm66.3,25.07c.78,13.19-10.24,13.27-20.34,12.81v.25c-10.8,0-22.41-1.59-21.54-15.12-.16-9.68,2.36-13,11.81-13.92C152.46,154.64,172.39,150.42,168.84,171.11ZM79.23,183.4c-13-3.4-16-21.28-14.43-33,.83-6.13,4.68-9.19,10-9,11-.16,10.08,12.74,10.58,20.86.17,7.28,3.91,11.36,10.74,13.42a51.78,51.78,0,0,0,4.66-12.35c10.74.7,22.92-3.69,22.93,11.11,2,15.78,21.06,13.05,32.74,13.45,11.57-.72,15-4,16.2-15.61-.38-9.06,10-9.82,13.22-3.14,3,22.59,16.86,19.49,35.37,18.59,9.89,69.88-71.07,76.12-112.44,40.51C88.26,213.21,91.23,182,79.23,183.4Z" transform="translate(-46.14 -43.68)"/><path d="M178.4,203.81c4,.61,9.44-3.83,11.59,2.45,1.42,4.47-1.25,12.93-4.88,15.45C170.79,231.86,153.58,199.08,178.4,203.81Zm-8.82,4.38c1.36,15,18.93,15.53,16,0Z" transform="translate(-46.14 -43.68)"/><path d="M167.57,147.55l-42.2-2.36C135.07,136,163,134.08,167.57,147.55Z" transform="translate(-46.14 -43.68)"/><path d="M161.37,172.14c-9.41-8.29-18.43-2.93-27.34-3,6.17-5.79,13.55-5.93,21.12-4.79C158.1,164.76,158.06,165,161.37,172.14Z" transform="translate(-46.14 -43.68)"/><path d="M197.56,170.7c6.67-8.53,10.89-8.74,17.38-1.09Z" transform="translate(-46.14 -43.68)"/></svg>