<svg id="Layer_13" data-name="Layer 13" xmlns="http://www.w3.org/2000/svg" viewBox="0 0 200.06 231.03"><path d="M238.84,140.66c9.88-20.32,11.55-41.36,6-63-5.52-22.49-30.69-18.36-49.49-22.51-4.49-11.82-15-19.64-29.15-23.07-38.4-10.46-66.54,21-93.83,42.56-21.57,18.16-14.75,51-7.07,74.63-31.36-2.75-14,39.38,7,41.58-.14.2-.29.38-.43.58,7.86,3.78,11,13.4,15.11,20.34,0-.12.11-.24.17-.37,2.48,2.82,5.67,5.3,5.91,9.39l.66-.73c13,26.59,45.07,51.7,75.37,36.25a45.82,45.82,0,0,1,12.71-8.21c3-5.49,8.14-9.46,11.72-14.24,9.09-14.35,14.54-40.11,32.15-46.2-.15-.19-.3-.38-.43-.57C245.46,180.67,257.85,151.62,238.84,140.66ZM243.37,88c-.5,8.79,1.95,43.33-7.79,44.92,15-24.29-8.18-61.41-31.56-72.33C226.16,56.8,241.31,66.28,243.37,88Zm-7.88,45L228,141.13c1.71-51.24,1.52-51.87-22.78-73.26L206.67,66a64.14,64.14,0,0,1,28.77,67S235.47,133,235.49,133ZM215.86,84.9c9.08,5.32,13.58,21.58,10,41C222.4,111.73,219,97.68,215.86,84.9Zm.91,25.52-3.53,1-5-18.5,3.12-.9Q214.09,101.22,216.77,110.42ZM184.12,52.11c-20.4-10.34-41.21-11.69-62.62-3.83C145.38,32.34,172.28,34.64,184.12,52.11Zm-48.29-2.67a21.36,21.36,0,0,1,11.72,0c-12.75,4.76-25.4,9.24-35.12,19.26,17.49-5.25,34-17.46,52.1-18.17L142.65,66.22c9.95-2,31.61-23.29,34.62-4.92-18.36,25-51,25.12-78.17,34l7.11-8.58A252.19,252.19,0,0,0,77.42,113.5C92.16,83.79,98.39,57.25,135.83,49.44ZM65.18,131q2.5-17.72,5-35.42l-7.89,22.07c-3.08-23.32,2.35-35,25.82-50.12l-9.52,14,8.2-6.18C79.35,92.35,74.57,115.22,65.18,131Zm-6.83,48.37c-15.52-14.68-.77-39.2,14.91-17.55C67,163.62,61,159.33,56.8,168L66,165.67c-.51,4.54-1,8.48-1.4,12.42,3.79,1,2.72-3.87,5.16-8.45L77.32,183C69.15,186.54,63.26,184.6,58.35,179.33Zm160.1-29.65c.27,48.14-45.08,142.72-101,93.33C89.86,214.56,59.07,161.19,89.79,126.4l-11.25,7C86,97.71,110.71,94.73,142.19,87.16c13.49-6.16,30.37-9.91,35.15-25.88,10.8-8.12,7.86,7.63,16.17,8.25-2.74,12.32-9.66,20.74-20.1,27.51L184,93.7C168.48,124.33,219.67,121.65,218.45,149.68Zm-3.15-23c1,2.38,2,4.76,2.89,6.91-11.69-10.83-40.51-18-30.65-38.33,2.38-4.83,8.87-22.71,9.67-8.69,1.65-3.4.43-10.13,4.66-10.89,5.43,13.27.93,29,12.11,39.39C217,118.1,222.51,122,215.3,126.69Zm3.58,54.72c4.79-8.13,2.4-16,14.13-9.13l-6-9.71,12.63-6.8c-3.89-3.36-3.89-3.36-14.41,3.32,1.22-10.51,13.8-18,19.33-7.84C247.63,166.34,234.55,184.09,218.88,181.41Z" transform="translate(-48.21 -30)"/><path d="M89.27,86.08l17.3-13.14L89.88,90.07C89.68,88.74,89.48,87.41,89.27,86.08Z" transform="translate(-48.21 -30)"/><path d="M165.56,193.61c-3.26,17.17-30.44,15.28-27.26-2.38,8.82-44,7.93-70.14-43.78-46.49l-1.59-3.89C195.52,84.89,107.66,231.56,165.56,193.61Z" transform="translate(-48.21 -30)"/><path d="M135.58,166.93c-7.89,9.47-36.71,6.75-41.83-4.56,3.31-12.16,25.91-7.57,35.85-8.38,7.27.74,8.55,6,5.78,13.14-.14-6.51-3.15-10.42-10.37-11.29-.58,4.32-1.13,8.32-1.77,13.08Zm-37.36-7.36c-1.9,5.52,6.2,5.35,10.44,8.46-.45-4.7-.73-7.56-1.1-11.4Z" transform="translate(-48.21 -30)"/><path d="M166.45,159c3.66-11.48,29-7.09,36.65-2.51,16.53,15.14-35.28,21.51-37.75,10.06l12,2.49c-1.21-5.18-2.13-9.13-3.19-13.63Zm35.56,3.5c.17-5-5.6-3.87-9.39-5.54v11.16Z" transform="translate(-48.21 -30)"/><path d="M133.64,211.65c1.71,2.15,3.59,4.56,5.16,6.71,10.11-6,16.68-6.32,23-1l7.14-8.26,4,2.73c-18.06,24.59-25.18,31.91-41.86,1Zm10.86,7.8-.33,1.94c5.11.32,10.55,3.1,13.06-3.17Z" transform="translate(-48.21 -30)"/><path d="M166.23,145.48c12.25-15,32.1-17,41-4.43C192.67,135.23,179.59,141.32,166.23,145.48Z" transform="translate(-48.21 -30)"/><path d="M137.36,112.09c8.73-8.43,24.81-9.51,36.14-15.13C163.41,106.67,150,108.53,137.36,112.09Z" transform="translate(-48.21 -30)"/><path d="M89.41,118.09c24.17-24.22,64.06-27.45,94.9-41.19C156.36,97.56,120,101.42,89.41,118.09Z" transform="translate(-48.21 -30)"/><path d="M117.39,80.1,135.57,68Z" transform="translate(-48.21 -30)"/></svg>