<svg id="Layer_30" data-name="Layer 30" xmlns="http://www.w3.org/2000/svg" viewBox="0 0 200.37 200.97"><path d="M251.83,141.32a220.37,220.37,0,0,0-11-33.39c-4.78-11.41-11.08-22.19-16.61-33.28-10.6-21.25-24-28.53-47.43-25.06a19.35,19.35,0,0,1-12.29-2.11C143.14,37,122.08,37,102.06,51,89,60.19,78.31,71.89,68.87,84.64A42.51,42.51,0,0,0,62.58,98c-5.39,18.68-7.91,37.49-3,56.87a51.64,51.64,0,0,1-2.15,32c-6.21,16-5.8,32.77-.9,48.48,6.6-.65,12.91-2.19,17.94-5.81s8.7-8.94,14.24-12.15c6.52-3.78,13.1-4.09,20.23-3.23,3.23-2.25,7.57-3.27,11-2s6.86,2.77,10.23,4.3l.31.13c.52.21,1,.42,1.57.61,1.48.54,3,1,4.48,1.38l.41.13c9.19,1.49,18.27.48,26.32-4.68.55.46,1,.76,1.32,1a9.83,9.83,0,0,1,4.59.33,16.26,16.26,0,0,1,5.63,1.94,13.48,13.48,0,0,1,6.68-.33c15.22,2.9,28.11,13.19,39.84,22.68.56.46,1.14.89,1.71,1.33a80.34,80.34,0,0,0,6.22-8.06c5.89-9.06,3.29-22.29,6.3-32.53a13,13,0,0,1,3.15-5.53,56.43,56.43,0,0,1,4.37-9.9c1.2-2.17,2.2-4.45,3.32-6.66C252.38,166.58,254.91,154.08,251.83,141.32ZM86.11,136.79c2.38-3.87,4.58-8.24,8-11,4-3.24,9.11-5.18,13.87-7.38,5.61-2.6,11.5-4.62,17-7.36s10.73-6,16.93-9.56c-1.16,4.4-2.06,7.83-3,11.26l1.5,1.1,17.14-14.17L152,108.6c8.52.3,12.13-1.59,22-11.28,4,4.13,7.86,8.45,12.16,12.27,1.62,1.44,4.61,6,6.39-.35,0-.06,2.21,0,2.67.63,2.82,3.62,6.15,7.09,8,11.2,4.38,9.78,2.82,12.27-7.86,13.8a7.62,7.62,0,0,1-5.49-1.86c-15.29-14.23-30.87-12.66-41.73,4.37-2.85,4.47-10.81,4.27-14.17-.68-5.18-7.62-12.29-10.93-21.33-10.86-8.38.07-15,3.28-19.67,10.29-.69,1-1,2.47-1.91,3.14-1.07.8-2.61,1-4,1.41C86.73,139.36,85.62,137.59,86.11,136.79Zm104.54,10.1c.07,12-8.24,20.37-20.29,20.43-12.72.07-21.08-7.65-21.09-19.49s8.78-20.76,20.3-20.82C181.55,127,190.59,135.48,190.65,146.89ZM133.5,149c0,12.39-8,20.38-20.3,20.32-12.57-.07-20.34-7.3-20.46-19-.13-12.2,8.22-21.19,19.78-21.32C124.69,128.84,133.48,137.24,133.5,149Zm74.29,10.65c-1.37,13.23-6.75,25-17.25,33.6-7.16,5.84-15.21,10.6-23,15.57-17.05,10.81-33.35,7.64-49.85-2.1-21-12.38-32.58-29.95-33-54.51a48.09,48.09,0,0,1,.44-6.45c0-.39.87-.7,2.91-2.24.56,4,.89,6.93,1.39,9.84,2.08,12.34,10.46,19.47,23.22,19.81,12.13.32,20.67-6.18,23.63-18.15.59-2.39.36-5,1.19-7.29.59-1.6,2.12-3.55,3.6-3.95,2.56-.68,5,.27,5,3.72a23.58,23.58,0,0,0,.12,2.79c1.7,13.38,11.45,21.41,25.1,20.71,13-.67,21.9-9.57,22.52-22.6a20,20,0,0,0-.12-4.65c-.78-4,1.14-5.57,4.73-6.38,6-1.36,11.29-2.74,14.25-9.83,2.52-6,9.71-4.69,12.9,1.67C232.29,142.64,223.4,158.57,207.79,159.68Z" transform="translate(-52.78 -40)"/><path d="M152.45,183.32c-.19,3.84-4.81,7.05-9,6.64-3.58-.35-8.66-4.45-7.74-6.8,2-5.15,6.87-2.55,10.51-2.85C148.67,180.1,152.11,179.4,152.45,183.32ZM142,184.59v1h4.8v-1Z" transform="translate(-52.78 -40)"/><path d="M179,139.41c-.79,4.55-1.54,7.57-1.78,10.64-.31,3.93-1.74,6.47-6.05,6.68s-6.24-1.92-6.52-6a19.75,19.75,0,0,0-.69-5.48c-1.82-4.77-1.15-7.2,3.17-7.37C171,137.7,174.92,138.83,179,139.41Z" transform="translate(-52.78 -40)"/><path d="M114.29,139.63c1.28.38,3.67,1,5.95,1.83.76.29,1.25,1.26,1.86,1.92-4.71,3.67.15,9.37-2.71,13.16a9,9,0,0,1-6.11,3.12c-1.6.07-3.77-1.73-4.89-3.27-2.2-3.06-.06-7.7-4.2-10.62C102.65,144.68,108.59,139.81,114.29,139.63Z" transform="translate(-52.78 -40)"/></svg>