<?xml version="1.0" encoding="utf-8"?>
<!-- Generator: Adobe Illustrator 24.3.0, SVG Export Plug-In . SVG Version: 6.00 Build 0)  -->
<svg version="1.1" id="Layer_19" xmlns="http://www.w3.org/2000/svg" xmlns:xlink="http://www.w3.org/1999/xlink" x="0px" y="0px"
	 viewBox="0 0 185.02 223.93" style="enable-background:new 0 0 185.02 223.93;" xml:space="preserve">
<path d="M124.92,206.18c22.41-22.6,33-52.07,38.72-82c24.7-10,28.1-27.64,9.65-48.15c2.27-95.54-156.1-103.11-166.22-11
	c-1.28,19.48-19.23,48.24,7.33,55.86C33.88,173.39,57.69,261.89,124.92,206.18z M165.67,116.18c1.72-11.28,3.25-21.3,4.9-32.14
	c13.33,9.41,11.26,22.89-4.9,32.11V116.18z M54.24,13.03c55.29-19.42,106.26-0.6,115.12,63.14C121.55,95.45,69.85,98.41,64.9,34.87
	c1.57,22.91-25.14,23.8-42.28,33.25c7.83,7,28.59-9.8,40.26-11.45c-1,9.53-27.49,22.14-49.49,22.79
	C8.07,51.89,27.55,19.67,54.24,13.03z M14.13,113.94c-10.86-4.06-7.71-13.57-7.8-22.72C14.01,89.16,16.66,108.89,14.13,113.94z
	 M47.32,190.55c-18.42-31.68-25.39-66.94-31.59-102l52-21c23.34,42.53,60.17,24.8,97.53,17.48
	C163.47,142.27,109.56,276.09,47.32,190.55z"/>
<path d="M24.86,112.26c14.74-11.3,22-11.63,36.37-2.51C50.86,122.69,41.26,123.47,24.86,112.26z M47.27,109.57
	c-1.58,5.52,7.91,3.45,6.7,0H47.27z M34.07,110.51c-0.91,3.93,1.75,2.85,4.66,2.75C38.85,109.42,37.23,109.73,34.07,110.51z"/>
<path d="M108.96,107.43c15.2-9.07,23.19-8.79,34.3,0.65C133.4,118.1,122.43,118.15,108.96,107.43z M136.07,109.27
	c0.05-4.9-3.1-2.37-6.34-1.56C129.61,111.51,133.53,109.17,136.07,109.27z M119.48,109.27c0.77,0.21,0.67-2.75-0.26-2.24
	c0.06,0.73,0.15,1.48,0.24,2.22L119.48,109.27z"/>
<path d="M88.07,159.77l-12.19-3.85c2.47-15.68-5-39.93,3-49.18c6.2,17.17-7.53,42,12.65,50.6L88.07,159.77z"/>
<path d="M65.35,176.78h26.12C90.42,186.03,74.87,183.94,65.35,176.78z"/>
<path d="M78.79,31.89c9.71,38.84,17.34,44.18,63.87,44.71C111.15,94.21,74.12,66.66,78.79,31.89z"/>
<path d="M157.71,64.57c-27.69,6.54-46.21,0.68-57.16-18.07C119.95,60.86,132.96,64.03,157.71,64.57z"/>
</svg>
