<svg id="Layer_23" data-name="Layer 23" xmlns="http://www.w3.org/2000/svg" viewBox="0 0 196.49 215.64"><path d="M250,146.56c-5.56,77.33-31.44,135.6-116,92.52-15.74,5.6-76.32,21.33-73.28-7.4C48.07,155.33,40.25,46,144,39.59c66.38-11.53,107,45.08,103.87,106.7ZM231.31,95.1C193.86,158,143.29,108,123.8,142.29c-2.34,14.43-12.49,9.9-22.24,13.34-15.66,5.78-9.91,29.24,9,27.45,19.08,1,10.72,71.89,81.53,64,23.7-4.31,37.52-20.32,42.27-42.31C239.57,168.56,250.19,129.57,231.31,95.1ZM113,145.58c-1-1.49-1.32-2.44-1.86-2.61-9.7-3.16-16.76-9.76-23.18-17.3C74.28,126,107.36,153.56,113,145.58Z" transform="translate(-53.51 -38.09)"/><path d="M157.78,153.59c6.47,3.47,13.05,6.76,19.3,10.6,3.7,18-31,23.72-40.15,10.86C130.72,161,150.12,157.65,157.78,153.59Zm-12.36,10-6.62,7.77,8.09,4.91c-.63-4.94-1.12-8.81-1.59-12.67l.42.27Zm17,14.77,10.29-10.67-9.13-6.82C163.22,166.77,162.9,171.54,162.45,178.32Z" transform="translate(-53.51 -38.09)"/><path d="M220.93,177.64c-21.44-1.7-22-21.59-1.91-24.67C245.73,151.22,244.38,172.08,220.93,177.64Zm9.4-9.54c5.44-6.27,5.06-7.17-3.43-9.27C228,161.71,229.06,164.68,230.33,168.1Zm-17,2.6v-9.53C209.25,164.51,204.82,167.25,213.29,170.7Z" transform="translate(-53.51 -38.09)"/><path d="M200.1,215.35c-9.32,6-19.45,13.91-27.31,2.54-2.34-5-9.21-9.25-7.38-15.1,12.39,8.9,25.22-.95,29.82,10.45C195.54,214.1,197.61,214.32,200.1,215.35Z" transform="translate(-53.51 -38.09)"/><path d="M193.83,164.47c4.58,9.64,16.75,30,2.8,35.94-.11-1.36-.84-3.14-.24-4,5.39-10.56-5.26-20.64-4.36-32.1Z" transform="translate(-53.51 -38.09)"/><path d="M139.6,143.85c5.8-5,24.42-7.9,27.78,2C158.45,148.2,148.3,144.13,139.6,143.85Z" transform="translate(-53.51 -38.09)"/><path d="M206.48,144.82c5.86-6.59,19.93-11,25.1-3C224.33,146.19,215,143.55,206.48,144.82Z" transform="translate(-53.51 -38.09)"/></svg>