<?xml version="1.0" encoding="utf-8"?>
<!-- Generator: Adobe Illustrator 24.3.0, SVG Export Plug-In . SVG Version: 6.00 Build 0)  -->
<svg version="1.1" id="Layer_16" xmlns="http://www.w3.org/2000/svg" xmlns:xlink="http://www.w3.org/1999/xlink" x="0px" y="0px"
	 viewBox="0 0 223.89 244.59" style="enable-background:new 0 0 223.89 244.59;" xml:space="preserve">
<path d="M215.72,88.93c-5.65-3.89-12.62-6.19-19.32-8c-4.84-1.35-8.39-3.52-10-8c-2.76-7.67-5.13-15.48-7.42-23.31
	c-2.85-9.7-4.14-20.12-8.4-29.12c-11.79-25.01-32.03-27.13-49.63-6.13c-6.35,7.58-7.34,7.6-14.26,0.23
	c-6.52-6.94-12.17-8.07-20.17-2.83C81.87,14.8,76.93,18.42,74.07,23c-7.84,12.63-15.26,25.65-21.84,39
	c-8.3,16.81-18.54,31-38.13,35.65c-1.35,0.4-2.66,0.95-3.9,1.63c-12.6,6.06-13.79,18.28-2.38,26.5c3.81,2.74,8.24,4.61,12.34,6.85
	c-4.71,15.77-2.58,19.96,14,27.3c-0.63,2.91-1.82,5.91-1.82,8.91c-0.14,7.51-0.57,15.15,0.61,22.51c0.97,6.04,5.42,10.42,11.72,12.2
	C55.36,206.57,56.55,208,57.98,219l0.38,0.32c2.26,1.46,4.6,2.79,7,4c2.75,1.23,6.42,3.63,8.42,2.74c7.56-3.35,11.94,0.59,17,5.14
	c9.11,8.19,15.83,7.8,25.25-0.2c1.66-1.4,4.59-2.63,6.53-2.19c14.34,3.32,14.3,3.46,22.71-8.4c0.46-0.72,0.99-1.39,1.58-2
	c3.19-3.01,6.7-3.15,8.83-0.75c0.83-1.28,2.52-1.88,3.8-1.42c-0.02-0.15-0.05-0.3-0.07-0.45c10.43-2.81,15-11.48,16.86-21
	c2.25-11.52,2.56-23.4,3.93-35.11c0.29-2.51,0.85-6.45,2.42-7.13c10.75-4.68,16.68-12.11,15.29-22.94c7.08-4.23,13.69-7.14,19-11.59
	C226.57,109.93,226.1,96,215.72,88.93z M27.5,153.39c-6.16-3.07-8.11-9.41-5.6-15.69c2.05-5.16,5.41-4.7,9.85-2.29
	c-1.52,8.46-1.11,9.6,5.75,16.5C35.13,158.48,30.83,155.04,27.5,153.39z M39.37,147.07l-3.29,0.29c-0.59-2.84-1.85-5.75-1.47-8.46
	c0.14-1.21,3.45-2,5.32-3l1.44,1.34C40.7,140.51,40.04,143.79,39.37,147.07z M172.92,112.06c-1.14,13.47-2.33,27.05-5.14,40.24
	c-6.55,30.7-31.44,50.94-62.63,52.18c-22.26,0.85-43.01-13.53-51.17-36.05c-8.67-23.79-8.3-48.68-9-74.55l-0.03-0.05
	c42.63-7.68,84.48-16.46,128.12-12.05C173.07,92.52,173.71,102.35,172.92,112.06z M35.87,91.24l-0.03-0.05
	c4.98-5.93,8.98-10.99,13.39-15.71c1.8-2.05,4.09-3.61,6.66-4.53c20.87-6.11,41.87-11.45,63.87-11c13.81,0.28,27.64-0.04,41.45,0.37
	c16.13,0.46,17.41,1.65,23.47,18.46C134.2,71.12,85.69,82.67,35.87,91.24z M178.65,133.88c0.98,0.25,2.82,0.54,2.82,0.73
	c-0.13,2.32-0.53,4.61-0.86,6.91l-3.29-0.72C177.76,138.5,178.23,136.19,178.65,133.88z M179.08,149.13
	c2.6-5.51,4.94-10.51,7.27-15.51l-1.49-1.41l8.48-2.32C196.37,139.51,192.37,144.95,179.08,149.13z"/>
<path d="M88.78,127.52c-6.73,7.44-21.93,8.15-28.7,1.35c-3.47-3.49-2.64-6.92,1-9.24c7.47-4.85,15.79-6.21,24.23-3.07
	c6,2.22,6.86,6,3.43,11.06c0-4.93-1.45-8.64-7.52-9v10.52L88.78,127.52z M69.3,120.32l-2.17-1.71l-5.56,6.87l8.58,6.81
	C69.76,126.83,69.53,123.57,69.3,120.32z"/>
<path d="M132.91,129.36c-5.83-3.53-6.45-7.14-1.27-10.24c6.81-4.25,15.14-5.35,22.82-3c6,1.8,7.46,5.72,4.9,11.11
	c-0.52-4.74-2.54-8.09-8.14-9v10.46l5.86,0.32c-7.48,6-17.51,6-24.34,0.13l7.53,0.89c-0.54-3.82-1-7.07-1.52-10.69
	C132.87,120.78,129.55,123.12,132.91,129.36z"/>
<path d="M103.46,163.52l-10.19-10c0.25-2.66,0.75-5.3,1.49-7.87c2.66-7.69,6.78-15,8.3-22.91c1.44-7.47,0.31-15.44,0.31-23.6
	c4.78,8.72,4.16,17.75,1.56,26.58c-2.51,8.55-6,16.8-9.4,25.89h5.6c0.74,2.49,1.55,5.18,2.81,9.41c2.18-3.36,3.43-5.28,5-7.78
	c2.55,2.32,5.53,4.81,7.79-1.42l1.45,1.94c-1.11,2-1.73,4.84-3.43,5.8C111.63,161.4,107.86,162.09,103.46,163.52z"/>
<path d="M90.34,98.15c-11,4.29-22.37,5.69-35.61,4.84C63.53,94,80.94,91.73,90.34,98.15z"/>
<path d="M120.49,100.72c10.61-9.29,28.32-11,37-4C145.56,100.58,132.97,101.95,120.49,100.72z"/>
<path d="M92.37,172.56h27.32C109.62,178.51,99.14,178.23,92.37,172.56z"/>
<path d="M83.55,110.13l-17.32,2.47l-0.34-2.12l17.29-2.88C83.28,108.44,83.42,109.29,83.55,110.13z"/>
<path d="M152.01,109l-19.38,1.24C138.02,105.83,143.71,105.36,152.01,109z"/>
</svg>
